<svg fill="none" height="24" width="110" xmlns="http://www.w3.org/2000/svg">
  <path clip-rule="evenodd" d="M24 12.5c0 5.42 0 8.13-1.68 9.82C20.63 24 17.92 24 12.5 24h-1c-5.42 0-8.13 0-9.82-1.68C0 20.63 0 17.92 0 12.5v-1c0-5.42 0-8.13 1.68-9.82C3.37 0 6.08 0 11.5 0h1c5.42 0 8.13 0 9.82 1.68C24 3.37 24 6.08 24 11.5z" fill="#07f" fill-rule="evenodd"></path>
  <path d="M9.93 0c4.4.02 6.74.17 8.25 1.68 1.68 1.69 1.68 4.4 1.68 9.82v1c0 5.42 0 8.13-1.68 9.82-1.51 1.5-3.86 1.66-8.25 1.68-4.39-.02-6.73-.17-8.25-1.68C0 20.63 0 17.92 0 12.5v-1c0-5.42 0-8.13 1.68-9.82C3.2.17 5.54.02 9.93 0z" fill="#ff2b42"></path>
  <path clip-rule="evenodd" d="M8.04 8.32a.51.51 0 00-.7.39 16.96 16.96 0 00-.3 3.26c0 1.14.1 2.25.32 3.32a.51.51 0 00.7.4 16.42 16.42 0 005.42-3.3.53.53 0 000-.78 16.42 16.42 0 00-5.44-3.3zM4.9 8.23a3 3 0 013.97-2.25 18.9 18.9 0 016.27 3.79 3 3 0 010 4.46 18.9 18.9 0 01-6.25 3.78 3 3 0 01-3.97-2.23 19.44 19.44 0 01-.38-3.81c0-1.28.13-2.53.36-3.74z" fill="#fff" fill-rule="evenodd"></path>
  <path d="M34.26 18.06h3L41.64 6h-2.17l-3.53 9.94h-.34L32.21 6H30zm18.63 0l-5.54-6.24L52.46 6h-2.53l-4.28 4.91h-.5v-4.9H43.1v12.05h2.06V12.9h.51l4.51 5.16zm7.5 0h3L67.8 6H65.6l-3.52 9.94h-.34L58.35 6h-2.21zM70.16 7.9c.7 0 1.22-.5 1.22-1.2s-.52-1.21-1.22-1.21c-.72 0-1.23.51-1.23 1.21s.51 1.2 1.23 1.2zm-1 10.16h1.97v-8.9h-1.96zm8.11.17c1.63 0 2.76-.85 3.37-1.6l.41 1.43h1.47V6h-1.96v4.52A4.26 4.26 0 0077.26 9c-2.54 0-4.34 1.93-4.34 4.61 0 2.69 1.8 4.62 4.34 4.62zm.48-1.76c-1.64 0-2.77-1.18-2.77-2.86s1.13-2.85 2.77-2.85c1.66 0 2.8 1.18 2.8 2.85s-1.14 2.86-2.8 2.86zm15.8-2.96A4.43 4.43 0 0088.94 9a4.45 4.45 0 00-4.62 4.61 4.45 4.45 0 004.62 4.62c1.85 0 3.59-.87 4.26-2.56l-1.85-.31a2.7 2.7 0 01-2.3 1.08c-1.5 0-2.49-.93-2.68-2.3h7.15c.02-.18.04-.39.04-.63zm-4.61-2.8c1.23 0 2.15.78 2.48 1.9h-4.93a2.49 2.49 0 012.45-1.9zm10.39 7.52c2.79 0 4.75-1.91 4.75-4.62 0-2.7-1.96-4.61-4.75-4.61s-4.75 1.91-4.75 4.61 1.96 4.62 4.75 4.62zm0-1.8c-1.6 0-2.7-1.14-2.7-2.82 0-1.67 1.1-2.82 2.7-2.82s2.7 1.15 2.7 2.82c0 1.68-1.1 2.83-2.7 2.83z" fill="#FFFFFF"></path>
</svg>
